<svg xmlns="http://www.w3.org/2000/svg" viewBox="0 0 512 512">
  <defs>
    <linearGradient id="a" x1="164.89" x2="348.55" y1="346.75" y2="163.09" gradientTransform="rotate(6.91 246.793497 246.674046)" gradientUnits="userSpaceOnUse">
      <stop offset="0" stop-color="#e26bbd"/>
      <stop offset=".5" stop-color="#fe8296"/>
      <stop offset="1" stop-color="#f9846a"/>
    </linearGradient>
  </defs>
  <path fill="#fff" d="M255.78 0C114.39.12-.12 114.84 0 256.22S114.84 512.12 256.22 512 512 397.3 512 256C511.76 114.63 397.15.12 255.78 0z"/>
  <path fill="url(#a)" d="M372.43 242.27l-.27.21-130.92 181.23a11.31 11.31 0 01-10.75 4.75l-3.34-.4a11.79 11.79 0 01-6.7-12.68L240 289h-93.1a11.76 11.76 0 01-9.12-6.67 11.29 11.29 0 011.39-11.46L270.26 88.24a11.78 11.78 0 0114.06-4.11A12 12 0 01291 96.8l-19.26 126.38h93.07a11.09 11.09 0 019.06 7.15 10.58 10.58 0 01-1.44 11.94z"/>
</svg>
